PathFileType	4	(X/Y/Z)	C:/Users/opensim2020/Desktop/walking_exp_matlab/subject01_walking15_straight_03.trc																																																																																																																															
DataRate	CameraRate	NumFrames	NumMarkers	Units	OrigDataRate	OrigDataStartFrame	OrigNumFrames																																																																																																																											
100	100	9	43	mm	100	1690	145																																																																																																																											
Frame#	Time	LFHD			RFHD			LBHD			RBHD			C7			T10			CLAV			STRN			RBAK			LSHO			LUPA			LELB			LFRM			LWRA			LWRB			LFIN			RSHO			RUPA			RELB			RFRM			RWRA			RWRB			RFIN			LASI			RASI			LPSI			RPSI			LTHI			LKNE			LTIB			LANK			LHEE			LTOE			RTHI			RKNE			RTIB			RANK			RHEE			RTOE			*39			*40			*41			*42		
		X1	Y1	Z1	X2	Y2	Z2	X3	Y3	Z3	X4	Y4	Z4	X5	Y5	Z5	X6	Y6	Z6	X7	Y7	Z7	X8	Y8	Z8	X9	Y9	Z9	X10	Y10	Z10	X11	Y11	Z11	X12	Y12	Z12	X13	Y13	Z13	X14	Y14	Z14	X15	Y15	Z15	X16	Y16	Z16	X17	Y17	Z17	X18	Y18	Z18	X19	Y19	Z19	X20	Y20	Z20	X21	Y21	Z21	X22	Y22	Z22	X23	Y23	Z23	X24	Y24	Z24	X25	Y25	Z25	X26	Y26	Z26	X27	Y27	Z27	X28	Y28	Z28	X29	Y29	Z29	X30	Y30	Z30	X31	Y31	Z31	X32	Y32	Z32	X33	Y33	Z33	X34	Y34	Z34	X35	Y35	Z35	X36	Y36	Z36	X37	Y37	Z37	X38	Y38	Z38	X39	Y39	Z39	X40	Y40	Z40	X41	Y41	Z41	X42	Y42	Z42	X43	Y43	Z43
																																																																																																																																		
91	0.9	322.62482	1667.29553	1437.05566	364.5369	1673.89758	1542.16406	211.05328	1628.74744	1476.46692	252.80064	1634.30188	1588.32544	178.04047	1434.27625	1509.9928	133.57101	1141.77734	1516.55237	321.48193	1365.91052	1501.37195	359.98016	1208.96643	1496.50464	120.96577	1244.95874	1588.34119	251.31079	1400.08203	1345.85095	196.11252	1223.05811	1262.63354	166.90437	1071.74902	1262.69543	217.52339	966.35315	1237.45764	316.77524	868.50903	1251.97375	262.20938	852.64691	1232.78687	321.59634	795.62146	1216.17383	263.78885	1404.8396	1653.91321	189.56584	1215.81934	1760.01831	186.77985	1088.59863	1769.79431	227.74495	972.37183	1797.86926	319.32986	865.69348	1772.43127	279.96634	861.54993	1813.99719	328.694	791.49573	1815.00867	300.6188	935.80725	1406.99036	308.73825	938.69452	1622.36145	118.24783	941.18512	1460.43579	123.23686	949.74707	1604.75854	347.29041	612.68585	1335.28992	368.86908	481.42084	1345.12061	239.77591	351.12619	1355.88708	104.94412	184.48395	1422.21545	61.73573	185.26102	1484.44507	189.97112	68.52773	1405.79321	265.10654	600.80383	1674.51819	278.48273	441.83307	1647.2334	210.83791	277.1767	1658.1012	162.14813	77.37741	1608.84363	107.4276	41.92726	1562.0343	299.65598	35.93432	1604.43164	348.78781	1707.5177	1522.24182	1973.19836	1023.46515	-3102.00562	2012.50696	1022.03326	-3140.72729	NaN	NaN	NaN
92	0.91	335.10373	1667.26392	1435.42676	377.49261	1674.14063	1540.35352	223.68439	1628.93298	1475.41589	265.87314	1634.70947	1587.03796	190.69807	1434.63831	1509.65149	146.10704	1142.22778	1516.93005	333.97546	1366.2168	1500.40417	372.44272	1209.26196	1495.61353	133.92503	1245.68933	1588.76917	263.3497	1400.15833	1345.13733	206.6205	1223.14673	1262.79065	175.77156	1072.38367	1263.9292	222.12444	965.41626	1238.31335	317.44742	863.41193	1251.66858	262.09915	849.87885	1233.26807	318.84695	790.44165	1215.85706	276.93613	1405.72876	1653.04163	204.15077	1216.83289	1760.27991	202.7493	1089.27344	1770.49805	248.47479	974.25787	1797.66858	344.14676	871.71667	1770.82776	305.11774	865.65015	1812.62756	357.05118	797.96417	1813.09094	312.86469	936.88049	1406.73267	320.91705	938.35852	1621.98535	130.57076	942.14423	1460.26331	135.89639	950.32227	1604.53735	364.47473	615.85675	1334.63037	388.75122	485.34906	1345.39722	264.75516	349.55966	1356.33325	137.90425	176.33398	1422.44141	95.83391	172.97278	1485.20142	229.39514	65.92311	1403.10742	272.15149	600.61743	1674.13745	281.48056	441.52737	1647.34949	212.19473	277.52341	1657.78931	162.53169	77.89252	1608.62915	107.82056	42.90065	1561.58655	299.96777	36.02733	1604.51819	361.70319	1707.69983	1520.40344	1973.15308	1023.60144	-3101.9939	2012.48608	1022.0697	-3140.75244	NaN	NaN	NaN
93	0.92	347.569	1667.08484	1433.70654	390.42538	1674.18323	1538.43054	236.27925	1628.90332	1474.31177	279.01419	1634.92053	1585.71777	203.40929	1434.72742	1509.13965	158.74133	1142.43982	1517.21045	346.5795	1366.32104	1499.27954	384.97092	1209.40015	1494.69312	147.68216	1245.99182	1589.12061	275.37656	1399.99377	1344.29614	217.0397	1222.98694	1262.90833	184.70035	1072.91028	1265.11902	226.77325	964.49615	1239.11133	318.2402	858.6347	1251.38464	262.11679	847.36987	1233.81812	316.27655	785.79523	1215.63904	290.08081	1406.38098	1652.03491	218.67549	1217.70752	1760.36951	218.75079	1089.84045	1771.10486	268.98209	976.21295	1797.28076	368.56418	877.96448	1769.00916	330.28986	869.9776	1810.93848	385.03201	804.71387	1810.8363	325.07855	937.64709	1406.38855	333.02225	937.7674	1621.58215	142.81635	942.87262	1460.11548	148.26239	950.66315	1604.34106	381.45142	618.81683	1334.06726	408.21384	488.86536	1345.66553	289.55203	347.4758	1356.66748	171.78998	167.20042	1422.31116	131.15224	160.12454	1485.49121	269.24014	63.09112	1399.94043	279.27539	600.32788	1673.66809	284.6785	441.19659	1647.19177	213.83296	277.92334	1657.38538	163.0578	78.53605	1608.39893	108.34035	43.87823	1561.3313	300.20035	35.96088	1604.59045	374.55579	1707.73901	1518.44958	1973.03906	1023.94611	-3102.06226	2012.45276	1021.96375	-3140.67358	NaN	NaN	NaN
94	0.93	360.03714	1666.81116	1431.90137	403.30093	1674.18188	1536.43628	248.80901	1628.67126	1473.05444	292.08853	1634.93408	1584.25281	216.14578	1434.57227	1508.41675	171.47664	1142.46814	1517.55347	359.23795	1366.22034	1498.10828	397.56973	1209.27551	1493.60657	160.75366	1246.20605	1589.42725	287.53796	1399.66785	1343.35669	227.70216	1222.66748	1262.86926	193.81682	1073.2699	1266.13745	231.64711	963.61023	1239.79419	319.3096	854.31726	1251.1825	262.34555	845.13599	1234.4292	313.74899	781.53601	1215.50806	303.30048	1406.89026	1650.98059	233.02954	1218.39099	1760.35828	234.56557	1090.2666	1771.60449	289.24539	978.22443	1796.79529	392.60519	884.42212	1767.03162	354.84201	874.55731	1809.22192	412.46677	811.75848	1808.36255	337.41025	938.20526	1405.93323	345.22882	937.02325	1621.13892	155.11781	943.31024	1459.93274	160.84906	950.49231	1604.047	398.30737	621.57623	1333.48352	426.83249	491.71121	1345.88989	314.05783	344.7106	1356.8374	206.33774	157.99486	1422.09534	166.47911	147.65338	1485.5575	309.78973	60.85344	1396.52441	286.3342	599.98065	1673.13733	288.16156	440.91879	1646.94836	215.82826	278.39166	1656.86047	163.50969	79.15009	1608.13013	108.52539	44.57411	1560.51257	300.36682	35.9185	1604.58984	387.29251	1707.59387	1516.34949	1973.09558	1023.52301	-3101.84009	2012.51318	1022.02863	-3140.63696	NaN	NaN	NaN
95	0.94	372.42398	1666.33875	1429.93579	416.13559	1673.98193	1534.35083	261.42044	1628.18481	1471.7063	305.15543	1634.79431	1582.75818	228.98174	1434.29651	1507.61902	184.19943	1142.25842	1517.84802	371.9743	1365.90344	1496.8064	410.23209	1208.94788	1492.448	173.89279	1246.19934	1589.63574	299.67209	1399.05957	1342.28406	238.47772	1222.0531	1262.6521	203.14491	1073.3877	1266.82935	236.83434	962.73224	1240.47046	320.44336	849.96252	1251.10669	262.93732	843.13629	1235.03381	311.61057	777.68774	1215.46155	316.46429	1407.15247	1649.72388	247.31267	1218.82056	1760.10315	250.36348	1090.58997	1771.98889	309.37604	980.25726	1796.15259	416.36975	891.13062	1764.98291	379.15485	879.27911	1807.21887	439.40909	819.06158	1805.69263	349.8613	938.48895	1405.46753	357.40607	936.15131	1620.67078	167.39983	943.39032	1459.68042	172.90941	950.43164	1603.90369	414.75986	623.89539	1333.12366	444.89453	494.16141	1346.05566	338.42352	341.41879	1356.93384	241.88264	148.21147	1421.47449	203.20486	134.69827	1485.34814	350.37897	58.33787	1392.53162	293.31091	599.65411	1672.53625	291.81802	440.5563	1646.43518	217.91728	278.9277	1656.3573	164.08803	79.96925	1607.82715	108.93932	46.02449	1560.26782	300.57419	35.83423	1604.6272	399.82559	1707.16541	1514.09705	1973.13049	1023.40332	-3101.96094	2012.58313	1021.96838	-3140.71509	NaN	NaN	NaN
96	0.95	384.70752	1665.7594	1427.91052	428.95056	1673.69275	1532.17957	273.97552	1627.57129	1470.20764	318.15796	1634.41528	1581.06177	241.81445	1433.91113	1506.77637	197.01051	1141.84265	1517.98096	384.72748	1365.39539	1495.37195	422.93176	1208.39514	1491.1875	187.15016	1245.98987	1589.67285	311.85757	1398.28015	1341.13525	249.39438	1221.24609	1262.40198	212.5822	1073.2915	1267.39575	242.35959	961.84418	1241.00513	321.7756	845.96167	1251.10449	263.90701	841.38123	1235.57849	309.92673	774.14844	1215.44702	329.78537	1407.27161	1648.47119	261.57663	1219.0603	1759.75391	266.15436	1090.77039	1772.32458	329.18713	982.26379	1795.31604	439.23987	897.65448	1762.64661	403.13828	883.98358	1804.80786	465.78281	826.51135	1802.8717	362.4769	938.43762	1404.93506	369.67963	935.12665	1620.1908	179.81616	943.13202	1459.24512	185.36676	949.66956	1603.43713	430.80539	625.78638	1332.98047	462.48309	496.15051	1346.323	362.79782	337.48688	1356.80017	277.9939	138.35504	1420.32239	241.05115	121.83548	1484.65369	392.10355	56.76892	1388.64819	300.13846	599.45746	1672.03308	295.48764	440.30145	1645.98633	220.2576	279.34732	1655.64136	164.67393	80.8828	1607.54993	109.16787	47.09962	1559.56714	300.71057	35.62907	1604.55994	412.6618	1707.01074	1512.0437	1973.104	1023.39398	-3101.91357	2012.50952	1022.03772	-3140.77734	NaN	NaN	NaN
97	0.96	397.09473	1665.05481	1425.82922	441.71716	1673.29944	1529.93091	286.47659	1626.80518	1468.67102	331.16571	1633.96301	1579.27454	254.64288	1433.27759	1505.71375	209.90898	1141.28149	1517.94604	397.59625	1364.69641	1493.85388	435.77524	1207.71594	1489.90759	200.27846	1245.63391	1589.50354	324.07962	1397.31799	1339.90979	260.31046	1220.24487	1261.91174	222.44765	1073.00989	1267.83984	248.21449	960.95996	1241.45361	323.72794	842.37146	1250.98291	265.39502	839.80585	1236.0354	308.69058	770.88538	1215.51184	343.13986	1407.1969	1647.03601	275.91098	1219.12817	1759.22229	281.84634	1090.77234	1772.51526	348.90134	984.28491	1794.41895	461.95795	904.40424	1760.4198	426.50613	888.75336	1802.45203	491.50256	834.06909	1799.89465	375.17719	938.11212	1404.33765	381.9473	934.021	1619.67749	192.33826	942.49994	1458.58667	197.44655	949.15436	1602.86572	446.56595	627.17389	1332.84961	479.01633	497.4165	1346.44006	387.17316	332.94272	1356.22937	314.98309	128.68929	1418.85962	279.55606	108.87276	1483.22607	433.60706	55.35175	1384.53369	306.94687	599.28546	1671.56177	299.11722	440.06894	1645.56445	222.50217	280.1405	1655.07947	165.17883	81.79	1607.20544	110.11694	48.28426	1559.79834	300.69553	35.36434	1604.39185	425.28088	1706.54529	1509.75049	1973.1676	1023.56049	-3101.9585	2012.45386	1022.05402	-3140.76465	NaN	NaN	NaN
98	0.97	409.41522	1664.1759	1423.60217	454.57428	1672.81934	1527.62488	299.08444	1625.83447	1467.01733	344.14594	1633.3136	1577.39197	267.59894	1432.56555	1504.52722	222.8325	1140.57678	1517.71094	410.55545	1363.81409	1492.26367	448.53687	1206.76489	1488.50928	213.53616	1245.14685	1589.16479	336.39194	1396.17395	1338.56042	271.30362	1219.16211	1261.32141	232.22583	1072.61841	1268.11243	254.50266	960.04419	1241.76624	325.86609	838.83002	1250.88904	267.3573	838.31671	1236.3866	308.01721	767.84161	1215.67957	356.61862	1406.94336	1645.55127	290.26538	1219.04834	1758.58301	298.96051	1090.62256	1772.5863	368.30685	986.20734	1793.28613	484.05869	911.02209	1758.06226	449.46225	893.70819	1800.12024	516.5177	841.54126	1796.71985	387.96704	937.53424	1403.71814	394.31174	932.89417	1619.15625	204.87109	941.65417	1457.79236	210.0379	947.99573	1601.74939	461.7962	627.96655	1332.66492	495.08105	498.35486	1346.56409	411.78961	327.9093	1355.23828	353.28232	119.61943	1417.07178	319.5051	96.80143	1481.68408	476.18707	54.76408	1380.90723	313.67819	599.11267	1670.97827	302.66864	440.12411	1645.29492	224.53741	280.87103	1654.3833	165.74016	82.93797	1607.06006	110.11306	50.47262	1559.25183	300.95139	35.38694	1604.5188	437.84128	1705.92151	1507.32324	1973.20264	1023.40302	-3101.85962	2012.59656	1022.13129	-3140.66943	NaN	NaN	NaN
99	0.98	421.69147	1663.23767	1421.28003	467.21725	1672.10632	1525.09656	311.54434	1624.74597	1465.24561	357.13245	1632.50989	1575.38892	280.61481	1431.70276	1503.30493	235.82591	1139.67078	1517.27014	423.52164	1362.80908	1490.57312	461.41034	1205.7301	1487.06885	226.81273	1244.48022	1588.66504	348.81647	1394.89758	1337.07068	282.3927	1217.91101	1260.60706	242.18547	1071.92456	1268.33484	261.16254	959.11206	1242.01843	328.46619	835.5144	1250.69104	269.8717	836.98981	1236.6167	307.53857	765.11865	1215.81848	370.12363	1406.52063	1643.87061	304.72232	1218.74768	1757.77783	313.73538	1090.43811	1772.40808	387.44748	988.12354	1792.10522	505.5708	917.46399	1755.51721	471.73904	898.45258	1797.61621	540.87579	849.07196	1793.52502	400.97629	936.66412	1402.96753	406.76572	931.66791	1618.65222	217.62125	940.51837	1456.72656	221.78209	947.78564	1600.80469	476.74411	628.19568	1332.21973	510.1998	498.28662	1346.672	436.44437	322.63907	1353.71387	391.94574	110.77619	1414.53625	359.40161	85.75438	1479.12781	518.67499	54.63301	1377.7854	320.46002	599.12103	1670.4834	306.1871	440.27228	1645.17444	226.49129	282.00754	1654.01025	166.30559	84.1899	1606.89819	110.35795	51.8874	1558.61304	300.97873	35.30869	1604.48853	450.40994	1705.15881	1504.79773	1973.2146	1023.41522	-3101.95093	2012.5094	1021.9682	-3140.71777	NaN	NaN	NaN
